<?xml version="1.0" encoding="UTF-8"?>
<svg id="Layer_2" data-name="Layer 2" xmlns="http://www.w3.org/2000/svg" viewBox="0 0 227.53 749.79">
  <defs>
    <style>
      .cls-1 {
        fill: #7a1dff;
      }

      .cls-1, .cls-2, .cls-3, .cls-4, .cls-5, .cls-6, .cls-7, .cls-8, .cls-9 {
        stroke: #fff;
      }

      .cls-1, .cls-10, .cls-11 {
        stroke-miterlimit: 10;
      }

      .cls-2 {
        fill: #00f4e2;
      }

      .cls-3 {
        fill: #f800ff;
      }

      .cls-4 {
        fill: #ff8000;
      }

      .cls-10 {
        fill: #fce600;
      }

      .cls-10, .cls-11, .cls-12 {
        stroke: #000;
      }

      .cls-5 {
        fill: #0025ff;
      }

      .cls-6 {
        fill: #ffb000;
      }

      .cls-11 {
        fill: #0094ef;
      }

      .cls-7 {
        fill: #006add;
      }

      .cls-8 {
        fill: #ed5500;
      }

      .cls-12 {
        fill: #ff2100;
      }

      .cls-9 {
        fill: #009245;
      }
    </style>
  </defs>
  <g id="solfège_-_Vertical" data-name="solfège - Vertical">
    <g id="hex_do_0">
      <g id="Layer_43_copy" data-name="Layer 43 copy">
        <path id="hi_do" data-name="hi do" class="cls-12" d="M137.43,639.59h54.82c2.64,0,5.07,1.41,6.39,3.69l27.41,47.47c1.32,2.28,1.32,5.09,0,7.38l-27.41,47.47c-1.32,2.28-3.75,3.69-6.39,3.69h-54.82c-2.64,0-5.07-1.41-6.39-3.69l-27.41-47.47c-1.32-2.28-1.32-5.09,0-7.38l27.41-47.47c1.32-2.28,3.75-3.69,6.39-3.69Z"/>
      </g>
    </g>
    <g id="hex_re_0">
      <g id="Layer_40_copy" data-name="Layer 40 copy">
        <path id="re" class="cls-4" d="M137.43,523.39h54.82c2.64,0,5.07,1.41,6.39,3.69l27.41,47.47c1.32,2.28,1.32,5.09,0,7.38l-27.41,47.47c-1.32,2.28-3.75,3.69-6.39,3.69h-54.82c-2.64,0-5.07-1.41-6.39-3.69l-27.41-47.47c-1.32-2.28-1.32-5.09,0-7.38l27.41-47.47c1.32-2.28,3.75-3.69,6.39-3.69Z"/>
      </g>
    </g>
    <g id="hex_meri_0">
      <g id="Layer_96_copy" data-name="Layer 96 copy">
        <path id="me-ri" class="cls-6" d="M90.1,575h-54.82c-2.64,0-5.07-1.41-6.39-3.69l-27.41-47.47c-1.32-2.28-1.32-5.09,0-7.38l27.41-47.47c1.32-2.28,3.75-3.69,6.39-3.69h54.82c2.64,0,5.07,1.41,6.39,3.69l27.41,47.47c1.32,2.28,1.32,5.09,0,7.38l-27.41,47.47c-1.32,2.28-3.75,3.69-6.39,3.69Z"/>
      </g>
    </g>
    <g id="hex_mi_0">
      <g id="Layer_37_copy" data-name="Layer 37 copy">
        <path id="mi" class="cls-10" d="M137.43,407.2h54.82c2.64,0,5.07,1.41,6.39,3.69l27.41,47.47c1.32,2.28,1.32,5.09,0,7.38l-27.41,47.47c-1.32,2.28-3.75,3.69-6.39,3.69h-54.82c-2.64,0-5.07-1.41-6.39-3.69l-27.41-47.47c-1.32-2.28-1.32-5.09,0-7.38l27.41-47.47c1.32-2.28,3.75-3.69,6.39-3.69Z"/>
      </g>
    </g>
    <g id="hex_fa_0">
      <g id="Layer_34_copy" data-name="Layer 34 copy">
        <path id="fa" class="cls-9" d="M35.29,349.1h54.82c2.64,0,5.07,1.41,6.39,3.69l27.41,47.47c1.32,2.28,1.32,5.09,0,7.38l-27.41,47.47c-1.32,2.28-3.75,3.69-6.39,3.69h-54.82c-2.64,0-5.07-1.41-6.39-3.69L1.49,407.63c-1.32-2.28-1.32-5.09,0-7.38l27.41-47.47c1.32-2.28,3.75-3.69,6.39-3.69Z"/>
      </g>
    </g>
    <g id="hex_sefi_0">
      <g id="Layer_93_copy" data-name="Layer 93 copy">
        <path id="fi" class="cls-2" d="M192.25,400.7h-54.82c-2.64,0-5.07-1.41-6.39-3.69l-27.41-47.47c-1.32-2.28-1.32-5.09,0-7.38l27.41-47.47c1.32-2.28,3.75-3.69,6.39-3.69h54.82c2.64,0,5.07,1.41,6.39,3.69l27.41,47.47c1.32,2.28,1.32,5.09,0,7.38l-27.41,47.47c-1.32,2.28-3.75,3.69-6.39,3.69Z"/>
      </g>
    </g>
    <g id="hex_so_0">
      <g id="Layer_31_copy" data-name="Layer 31 copy">
        <path id="so" class="cls-11" d="M35.29,232.9h54.82c2.64,0,5.07,1.41,6.39,3.69l27.41,47.47c1.32,2.28,1.32,5.09,0,7.38l-27.41,47.47c-1.32,2.28-3.75,3.69-6.39,3.69h-54.82c-2.64,0-5.07-1.41-6.39-3.69L1.49,291.44c-1.32-2.28-1.32-5.09,0-7.38l27.41-47.47c1.32-2.28,3.75-3.69,6.39-3.69Z"/>
      </g>
    </g>
    <g id="hex_lesi_0">
      <g id="Layer_90_copy" data-name="Layer 90 copy">
        <path id="le-si" class="cls-7" d="M192.25,284.5h-54.82c-2.64,0-5.07-1.41-6.39-3.69l-27.41-47.47c-1.32-2.28-1.32-5.09,0-7.38l27.41-47.47c1.32-2.28,3.75-3.69,6.39-3.69h54.82c2.64,0,5.07,1.41,6.39,3.69l27.41,47.47c1.32,2.28,1.32,5.09,0,7.38l-27.41,47.47c-1.32,2.28-3.75,3.69-6.39,3.69Z"/>
      </g>
    </g>
    <g id="hex_la_0">
      <g id="Layer_28_copy" data-name="Layer 28 copy">
        <path id="la" class="cls-5" d="M35.29,116.7h54.82c2.64,0,5.07,1.41,6.39,3.69l27.41,47.47c1.32,2.28,1.32,5.09,0,7.38l-27.41,47.47c-1.32,2.28-3.75,3.69-6.39,3.69h-54.82c-2.64,0-5.07-1.41-6.39-3.69L1.49,175.24c-1.32-2.28-1.32-5.09,0-7.38l27.41-47.47c1.32-2.28,3.75-3.69,6.39-3.69Z"/>
      </g>
    </g>
    <g id="hex_teli_0">
      <g id="Layer_87_copy" data-name="Layer 87 copy">
        <path id="te-li" class="cls-1" d="M192.25,168.3h-54.82c-2.64,0-5.07-1.41-6.39-3.69l-27.41-47.47c-1.32-2.28-1.32-5.09,0-7.38l27.41-47.47c1.32-2.28,3.75-3.69,6.39-3.69h54.82c2.64,0,5.07,1.41,6.39,3.69l27.41,47.47c1.32,2.28,1.32,5.09,0,7.38l-27.41,47.47c-1.32,2.28-3.75,3.69-6.39,3.69Z"/>
      </g>
    </g>
    <g id="hex_ti_0">
      <g id="Layer_25_copy" data-name="Layer 25 copy">
        <path id="ti" class="cls-3" d="M35.29.5h54.82c2.64,0,5.07,1.41,6.39,3.69l27.41,47.47c1.32,2.28,1.32,5.09,0,7.38l-27.41,47.47c-1.32,2.28-3.75,3.69-6.39,3.69h-54.82c-2.64,0-5.07-1.41-6.39-3.69L1.49,59.04c-1.32-2.28-1.32-5.09,0-7.38L28.9,4.19c1.32-2.28,3.75-3.69,6.39-3.69Z"/>
      </g>
    </g>
    <g id="hex_dira_1">
      <path id="di-ra" class="cls-8" d="M90.1,691.19h-54.82c-2.64,0-5.07-1.41-6.39-3.69l-27.41-47.47c-1.32-2.28-1.32-5.09,0-7.38l27.41-47.47c1.32-2.28,3.75-3.69,6.39-3.69h54.82c2.64,0,5.07,1.41,6.39,3.69l27.41,47.47c1.32,2.28,1.32,5.09,0,7.38l-27.41,47.47c-1.32,2.28-3.75,3.69-6.39,3.69Z"/>
    </g>
  </g>
</svg>