<?xml version="1.0" encoding="UTF-8"?>
<svg id="Layer_2" data-name="Layer 2" xmlns="http://www.w3.org/2000/svg" viewBox="0 0 40.05 53.57">
  <defs>
    <style>
      .cls-1 {
        fill: #fff;
        stroke-width: 0px;
      }
    </style>
  </defs>
  <g id="Layer_2-2" data-name="Layer 2">
    <g id="LOGO">
      <g id="LOGO-2">
        <g>
          <path class="cls-1" d="M10.7,46.02c-1.06-.94-1.12-2.54-.13-3.52,6.49-6.34,13.5-7.64,13.5-7.64,3.39-.99,5.83-2.81,7.53-4.7,3.54-3.91,4.84-9.44,3.37-14.58-1.53-5.33-5.58-8.23-8.96-9.77-3.5-1.59-7.49-1.95-11.12-.82-4.14,1.27-6.69,3.91-8.25,6.57-1.81,3.07-2.52,6.66-2.24,10.23l.54,6.86c.09,1.09,1.03,1.93,2.13,1.91,1.1-.02,1.96-.9,1.96-1.98,0-2.64-.28-5.86-.41-7.29-.05-.51-.09-1.03-.06-1.55.29-8.97,6.84-10.95,10.38-11.36,1.19-.14,2.28.75,2.38,1.94v.09c.1,1.09-.7,2.02-1.79,2.17-5.12.73-6.31,4.27-6.56,6.36-.09.75-.04,1.5.08,2.25.38,2.34.44,5.2.39,7.68-.07,3.31-2.68,5.96-6.03,6.15h0c-3.75.21-6.98-2.74-7.06-6.45-.04-1.64-.08-3.27-.1-4.51-.02-.97-.15-2.54-.23-3.52-.07-.99-.04-1.99.07-2.96C.95,10.57,5.35,4.47,11.86,1.65c.07-.03.14-.06.21-.09,4.64-1.96,9.95-2.1,14.74-.31,1.89.7,3.51,1.61,4.91,2.62,6.69,4.81,9.67,13.23,7.76,21.04-.98,4.04-3.15,7.03-5.35,9.14-2.38,2.28-5.34,3.83-8.51,4.86-5.71,1.85-9.43,4.79-11.57,7-.89.93-2.38.97-3.37.1h.02Z"/>
          <ellipse class="cls-1" cx="6.14" cy="50.29" rx="3.55" ry="2.74" transform="translate(-37.73 24.95) rotate(-53.02)"/>
        </g>
      </g>
    </g>
  </g>
</svg>